<svg width="32" height="32" viewBox="0 0 32 32" fill="none" xmlns="http://www.w3.org/2000/svg">
<path d="M16 0C14.2327 0 12.8 1.43269 12.8 3.2V28.8C12.8 30.5673 14.2327 32 16 32C17.7673 32 19.2 30.5673 19.2 28.8V3.2C19.2 1.43269 17.7673 0 16 0Z" fill="#1A1A1A"/>
<path d="M25.6 9.6C25.6 7.83269 27.0327 6.4 28.8 6.4C30.5673 6.4 32 7.83269 32 9.6V22.4C32 24.1673 30.5673 25.6 28.8 25.6C27.0327 25.6 25.6 24.1673 25.6 22.4V9.6Z" fill="#1A1A1A"/>
<path d="M3.2 6.4C1.43269 6.4 0 7.83269 0 9.6V22.4C0 24.1673 1.43269 25.6 3.2 25.6C4.96731 25.6 6.4 24.1673 6.4 22.4V9.6C6.4 7.83269 4.96731 6.4 3.2 6.4Z" fill="#1A1A1A"/>
</svg>
